<svg xmlns="http://www.w3.org/2000/svg" viewBox="17.567999999999998 13.392 37.296 44.208" id="emoji" style="max-height: 500px" width="37.296" height="44.208">
  <g id="color">
    <rect stroke="none" fill="#FFFFFF" height="24" width="34" y="32" x="19"/>
    <rect stroke-width="2" stroke-miterlimit="10" stroke-linejoin="round" stroke-linecap="round" stroke="none" fill="#A57939" height="16" width="9" y="40" x="25"/>
    <rect stroke-width="2" stroke-miterlimit="10" stroke-linejoin="round" stroke-linecap="round" stroke="none" fill="#92D3F5" height="7" width="8" y="40" x="40"/>
    <polygon points="53,32 19,32.0003 19,31 35,15 53,31" stroke-width="2" stroke-miterlimit="10" stroke-linejoin="round" stroke-linecap="round" stroke="none" fill="#EA5A47"/>
    <polygon points="29,21 24,26 24,17 29,17" stroke-width="2" stroke-miterlimit="10" stroke-linejoin="round" stroke-linecap="round" stroke="none" fill="#EA5A47"/>
  </g>
  <g id="hair"/>
  <g id="skin"/>
  <g id="skin-shadow"/>
  <g id="line">
    <rect stroke-width="2" stroke-miterlimit="10" stroke-linejoin="round" stroke-linecap="round" stroke="#000000" fill="none" height="16" width="9" y="40" x="25"/>
    <rect stroke-width="2" stroke-miterlimit="10" stroke-linejoin="round" stroke-linecap="round" stroke="#000000" fill="none" height="7" width="8" y="40" x="40"/>
    <polygon points="53,32 19,32.0003 19,31 35,15 53,31" stroke-width="2" stroke-miterlimit="10" stroke-linejoin="round" stroke-linecap="round" stroke="#000000" fill="none"/>
    <rect stroke-width="2" stroke-miterlimit="10" stroke-linejoin="round" stroke-linecap="round" stroke="#000000" fill="none" height="24" width="34" y="32" x="19"/>
    <polygon points="29,21 24,26 24,17 29,17" stroke-width="2" stroke-miterlimit="10" stroke-linejoin="round" stroke-linecap="round" stroke="#000000" fill="none"/>
  </g>
</svg>