<svg xmlns="http://www.w3.org/2000/svg" viewBox="4.464 4.752000000000001 63.216 62.496" id="emoji" style="max-height: 500px" width="63.216" height="62.496">
  <g id="color">
    <polygon points="66,36 55.3235,41.1816 61.9819,51.0063 50.1418,50.1424 51.0056,61.9823 41.1813,55.3236 36,66 30.8184,55.3235 20.9937,61.9819 21.8576,50.1418 10.0177,51.0056 16.6764,41.1813 6,36 16.6765,30.8184 10.0181,20.9937 21.8582,21.8576 20.9944,10.0177 30.8187,16.6764 36,6 41.1816,16.6765 51.0063,10.0181 50.1424,21.8582 61.9823,20.9944 55.3236,30.8187" stroke="none" fill="#FCEA2B"/>
  </g>
  <g id="hair"/>
  <g id="skin"/>
  <g id="skin-shadow"/>
  <g id="line">
    <circle stroke-width="2" stroke-miterlimit="10" stroke-linejoin="round" stroke-linecap="round" stroke="#000000" fill="none" r="19.8276" cy="35.95" cx="36"/>
    <polygon points="66,36 55.3235,41.1816 61.9819,51.0063 50.1418,50.1424 51.0056,61.9823 41.1813,55.3236 36,66 30.8184,55.3235 20.9937,61.9819 21.8576,50.1418 10.0177,51.0056 16.6764,41.1813 6,36 16.6765,30.8184 10.0181,20.9937 21.8582,21.8576 20.9944,10.0177 30.8187,16.6764 36,6 41.1816,16.6765 51.0063,10.0181 50.1424,21.8582 61.9823,20.9944 55.3236,30.8187" stroke-width="2" stroke-miterlimit="10" stroke-linejoin="round" stroke-linecap="round" stroke="#000000" fill="none"/>
  </g>
</svg>