<svg xmlns="http://www.w3.org/2000/svg" viewBox="8.783999999999999 9.504000000000001 55.152 51.983999999999995" id="emoji" style="max-height: 500px" width="55.152" height="51.983999999999995">
  <g id="color">
    <polygon points="41.8465 36.3544 33.3056 36.3172 31.3127 36.3172 31.3127 39.2746 31.322 42.3685 39.0268 42.4022 41.8465 42.4022 41.8465 36.3544" fill="#fcea2b"/>
    <path d="m31.4162,41.6188l-.3429-3.7443c-.0066-.058-.0547-.1023-.113-.1044,0,0-18.948-1.9874-18.9454-1.8667l.259,7.6637,17.8099-1.608c.019,0,.0334.7369.0507.7291.14-.0634.9309-.6263,1.2009-.6934.0551-.0137.0872-.3197.0808-.3761Z" fill="#6a462f"/>
    <path d="m57.1237,38.6643h-14.9225v3.4808c0,.0911.512.1733.4892.2571l17.1333-.1903.253-6.0799c-.2349,1.9835-2.213,1.9629-2.953,2.5323Z" fill="#6a462f"/>
    <path d="m12.2584,36.8135s-.2216,1.9088,3.7599,1.8508c2.983-.0435,14.8516,0,14.8516,0l1.0237-1.8983,9.3992-.0793,1.3976,1.6962s11.9705.5109,14.4333.2814c3.2389-.3018,3-3.8906,3-3.9999v-14.7435H12.2584v16.8926Z" fill="#a57939"/>
    <path d="m42.7422,41.6533H12.7828l.0006.0206c.5383.0165-.525,1.3157-.525,1.858l.4953,15.3184h46.9289v-16.1626c0-.4933-.387-.8842.0825-.9664l-.2483-.068s-16.7746,0-16.7746,0Z" fill="#a57939"/>
  </g>
  <g id="line">
    <polyline points="31.4557 15.8909 31.4557 12.0523 41.7807 12.0523 41.7807 15.8909" stroke-width="2" stroke-linejoin="round" stroke-linecap="round" stroke="#000" fill="none"/>
    <polyline points="59.4326 42.6877 59.4326 58.8503 12.5037 58.8503 12.5037 42.668" stroke-width="2" stroke-linejoin="round" stroke-linecap="round" stroke="#000" fill="none"/>
    <path d="m41.9512,38.6643h14.9225c1.6569,0,3-1.3431,3-3v-15.7434H12.0084v15.7434c0,1.6569,1.3431,3,3,3h15.6115" stroke-width="2" stroke-linejoin="round" stroke-linecap="round" stroke="#000" fill="none"/>
    <rect stroke-width="2" stroke-linejoin="round" stroke-linecap="round" stroke="#000" fill="none" height="5.8279" width="10.325" y="36.3172" x="31.167"/>
  </g>
</svg>